<svg xmlns="http://www.w3.org/2000/svg" id="Line" viewBox="0 0 512 512" width="300" height="300" version="1.1" xmlns:xlink="http://www.w3.org/1999/xlink" xmlns:svgjs="http://svgjs.dev/svgjs"><g width="100%" height="100%" transform="matrix(0.79,0,0,0.79,53.76082682044711,53.76132206240203)"><path d="M248.393,80.186l-.786-15.98c-82.593,4.056-151,67.573-165,152.1A48.069,48.069,0,0,0,40,264v32a48.055,48.055,0,0,0,48,48h30a18.021,18.021,0,0,0,18-18V264H120v62a2.027,2.027,0,0,1-2,2H88a32.036,32.036,0,0,1-32-32V264a32.036,32.036,0,0,1,32-32h30a2.027,2.027,0,0,1,2,2v14h16V234a18.021,18.021,0,0,0-18-18H98.9C112.747,140.348,174.3,83.825,248.393,80.186Z" fill="#ec2029" fill-opacity="1" data-original-color="#000000ff" stroke="none" stroke-opacity="1"/><path d="M86.294,86.294A240.012,240.012,0,0,1,410.836,72.619,8,8,0,0,0,424,66.509V32H408V50A256.01,256.01,0,0,0,57.81,418.05l12.38-10.134a240.017,240.017,0,0,1,16.1-321.622Z" fill="#ec2029" fill-opacity="1" data-original-color="#000000ff" stroke="none" stroke-opacity="1"/><path d="M445.934,84.355,434.067,95.086A240,240,0,0,1,93.421,432.546,8,8,0,0,0,80,438.43V480H96V455.854a256.007,256.007,0,0,0,349.934-371.5Z" fill="#ec2029" fill-opacity="1" data-original-color="#000000ff" stroke="none" stroke-opacity="1"/><path d="M172,232h28V216H176V200h12a12.013,12.013,0,0,0,12-12V164a12.013,12.013,0,0,0-12-12H160v16h24v16H172a12.013,12.013,0,0,0-12,12v24A12.013,12.013,0,0,0,172,232Z" fill="#ec2029" fill-opacity="1" data-original-color="#000000ff" stroke="none" stroke-opacity="1"/><path d="M264,232V152H248v32H234a2,2,0,0,1-2-2V152H216v30a18.021,18.021,0,0,0,18,18h14v32Z" fill="#ec2029" fill-opacity="1" data-original-color="#000000ff" stroke="none" stroke-opacity="1"/><rect x="168" y="256" width="192" height="16" transform="translate(-109.352 264) rotate(-45)" fill="#ec2029" fill-opacity="1" data-original-color="#000000ff" stroke="none" stroke-opacity="1"/><path d="M297.429,355.437l13.142,9.126,40-57.6A8,8,0,0,0,352,302.4V288a8,8,0,0,0-8-8H288v16h48V299.9Z" fill="#ec2029" fill-opacity="1" data-original-color="#000000ff" stroke="none" stroke-opacity="1"/><path d="M248,464a40.067,40.067,0,0,0,39.331-32.7,170.338,170.338,0,0,0,74.061-24.769A181.06,181.06,0,0,0,422.176,344H424a48.055,48.055,0,0,0,48-48V264a48.069,48.069,0,0,0-42.6-47.7c-14.009-84.523-82.412-148.04-165.005-152.1l-.786,15.98C337.7,83.825,399.253,140.348,413.1,216H394a18.021,18.021,0,0,0-18,18v62h16V234a2.027,2.027,0,0,1,2-2h30a32.036,32.036,0,0,1,32,32v32a32.036,32.036,0,0,1-32,32H394a2.027,2.027,0,0,1-2-2V312H376v14a18.021,18.021,0,0,0,18,18h9.318a164.359,164.359,0,0,1-50.333,48.921,154.367,154.367,0,0,1-65.948,22.338A40,40,0,1,0,248,464Zm0-64a24,24,0,1,1-24,24A24.028,24.028,0,0,1,248,400Z" fill="#ec2029" fill-opacity="1" data-original-color="#000000ff" stroke="none" stroke-opacity="1"/></g></svg>