<?xml version="1.0" encoding="utf-8"?>
<!-- Generator: Adobe Illustrator 27.5.0, SVG Export Plug-In . SVG Version: 6.00 Build 0)  -->
<svg version="1.1" id="Layer_1" xmlns="http://www.w3.org/2000/svg" xmlns:xlink="http://www.w3.org/1999/xlink" x="0px" y="0px"
	 viewBox="0 0 2000 2000" style="enable-background:new 0 0 2000 2000;" xml:space="preserve">
<path style="fill:#E6E6E6;" d="M1642.561,1180.496c-29.743-37.588,34.39-69.696,18.904-116.675
	c-5.071-15.391-0.615-32.545,9.267-47.54c-46.2,20.271-102.391,52.009-68.972,75.56c53.075,37.411-132.695,62.11-35.388,122.17
	c33.362,20.591,62.098,20.059,85.456,10.484c3.726-12.182,7.641-24.999,11.669-38.188
	C1655.367,1188.814,1648.111,1187.511,1642.561,1180.496z"/>
<path style="fill:#E6E6E6;" d="M436.267,1038.958c70.776-17.688,86.249-44.232-17.687-100.437
	c-93.006-50.301-110.564-34.951-113.23-31.161c3.23,11.004,6.512,22.21,9.808,33.475c4.538-5.854,12.562-7.828,26.017-2.314
	c42.421,17.354,38.692,121.751,1.652,96.919c3.292,11.226,6.467,22.031,9.478,32.233
	C375.574,1074.981,380.636,1052.865,436.267,1038.958z"/>
<path style="fill:#D8D8D8;" d="M465.026,1054.445c126.052-19.916,125.614-60.375,71.651-83.27s-25.218-33.953-113.682-78.184
	c-77.342-38.678-100.201-46.91-130.027-27.662c3.976,13.436,8.134,27.557,12.382,42.031c2.667-3.79,20.224-19.14,113.23,31.161
	c103.936,56.205,88.463,82.749,17.687,100.437c-55.631,13.907-60.693,36.023-83.963,28.716c2.169,7.353,4.254,14.396,6.233,21.053
	c0.885,2.746,2.074,7.321,3.036,10.238C377.164,1080.788,409.135,1063.271,465.026,1054.445z"/>
<path style="fill:#C9C9C9;" d="M1626.692,1284.526c1.305,0.199,2.534,0.38,3.673,0.541c1.126-1.754,2.175-3.557,3.153-5.401
	c-4.549-2.212-10.737-5.017-18.5-8.492C1621.991,1275.269,1625.532,1279.824,1626.692,1284.526z"/>
<path style="fill:#C9C9C9;" d="M1418.191,1138.533c-8.844-24.275,55.289,2.16,55.877-37.657
	c0.378-25.574,49.327-47.496,84.277-59.902c-91.111,24.363-186.458,49.779-274.51,73.065l4.241,2.051
	c1.91,0.887,3.822,1.776,5.735,2.664c89.362,39.503,178.624,81.375,266.364,124.9
	C1491.305,1205.753,1425.177,1157.681,1418.191,1138.533z"/>
<path style="fill:#C9C9C9;" d="M279.794,821.231l0.103,0.354c-0.034-0.118-0.068-0.237-0.101-0.354
	C279.795,821.231,279.795,821.231,279.794,821.231z"/>
<path style="fill:#C9C9C9;" d="M422.995,892.992c88.463,44.231,59.718,55.289,113.682,78.184s54.401,63.354-71.651,83.27
	c-55.891,8.826-87.862,26.343-103.452,44.52c0.101,0.307,0.201,0.602,0.296,0.868c4.329,12.544,12.532,23.675,23.154,31.585
	c-3.117-15.463-2.509-35.866,12.916-43.8c0.05-0.026,0.104-0.052,0.155-0.077c8.803-6.288,19.544-9.711,30-12.203
	c84.453-21.5,171.164-42.259,256.578-59.678c-136.7-65.413-279.346-133.877-404.859-194.419c4.036,13.382,8.468,28.258,13.154,44.09
	C322.794,846.081,345.653,854.313,422.995,892.992z"/>
<path style="fill:#F2F2F2;" d="M1661.465,1063.821c15.487,46.979-48.646,79.086-18.904,116.675
	c5.55,7.015,12.806,8.318,20.937,5.812c19.723-64.582,42.112-138.03,57.846-188.987c-14.88,3.99-30.138,8.08-45.715,12.255
	c-1.747,2.177-3.388,4.415-4.897,6.706C1660.85,1031.276,1656.394,1048.43,1661.465,1063.821z"/>
<path style="fill:#F2F2F2;" d="M1720.786,999.178c-1.578,5.216-3.204,10.619-4.873,16.195L1720.786,999.178z"/>
<path style="fill:#F2F2F2;" d="M341.175,938.521c-13.455-5.513-21.478-3.54-26.017,2.314c9.422,32.203,18.951,64.875,27.669,94.605
	C379.867,1060.273,383.596,955.875,341.175,938.521z"/>
<path style="fill:#E6E6E6;" d="M972.659,569.118c-0.901-0.176-1.58-0.31-1.58-0.31l-6.162-0.965l-3.081-0.483
	c-3.309-0.441-6.282-0.707-9.292-1.097c-1.502-0.054-7.727-0.666-9.327-0.744c-3.403-0.176-6.267-0.245-9.349-0.391
	c-10.198-0.144-21.01,0.16-31.147,1.282c-8.036,0.835-16.739,2.171-24.658,3.8c-3.15,0.665-6.394,1.35-9.718,2.051
	C905.263,567.816,942.046,565.864,972.659,569.118z"/>
<path style="fill:#E6E6E6;" d="M235.034,724.925l-0.014-0.007c0,0,61.923,11.058,260.962-42.019
	c170.628-45.501,186.45-66.618,187.491-71.72c-57.86,12.162-119.707,25.15-179.493,37.695
	c-40.218,14.187-81.535,26.668-118.874,34.031c-134.608,26.531-169.996,30.96-150.081,42.018
	c8.51,4.732,84.308,41.602,168.266,82.247c-60.92-29.819-118.298-57.888-168.271-82.251
	C235.024,724.921,235.029,724.923,235.034,724.925z"/>
<path style="fill:#E6E6E6;" d="M1131.09,666.788c28.456,11.918,56.943,23.862,77.238,32.28c3.35,1.405,6.724,2.82,10.11,4.24
	c49.693,18.808,99.897,39.181,141.565,56.553C1280.531,726.235,1199.93,693.119,1131.09,666.788z"/>
<path style="fill:#E6E6E6;" d="M1459.963,802.628c0,0-121.694-50.258-238.212-97.931
	c114.628,48.074,249.156,104.523,373.968,157.282c-40.188-17.758-86.604-38.109-135.782-59.362
	C1459.943,802.619,1459.963,802.628,1459.963,802.628z"/>
<path style="fill:#E6E6E6;" d="M836.928,616.774c-64.911,10.217-142.008,30.383-236.94,54.715
	C681.327,652.608,761.892,634.011,836.928,616.774z"/>
<path style="fill:#E6E6E6;" d="M1730.753,922.284c-9.15-4.141-34.837-15.74-71.645-32.161
	c-45.316-18.559-92.699-38.027-140.59-57.747l212.083,89.95C1730.651,922.312,1730.703,922.298,1730.753,922.284z"/>
<path style="fill:#E6E6E6;" d="M999.998,645.303c-45.606,18.314,181.627,136.723,307.563,198.24
	c27.741,12.216,55.378,24.541,82.857,37.01c21.604,7.601,39.002,15.359,46.539,21.815c1.062,0.576,2.119,1.161,3.165,1.77
	c1.959,1.202,4.225,2.416,4.324,5.158c0.735,8.686-32.327,17.331-39.598,19.799c-24.329,7.167-49.014,13.016-73.723,18.622
	c-46.917,10.263-93.983,19.969-141.309,28.153c-16.327,8.602-46.152,28.594,5.015,39.055
	c66.346,13.564,201.251-44.526,342.79-76.409c141.539-31.883,48.654-32.252-115-93.498
	c-163.654-61.246-300.77-142.216-223.366-122.515c51.012,12.983-2.612-18.099-45.112-40.806c-7.91-3.297-16.004-6.673-24.104-10.052
	C1068.01,651.024,1017.112,638.431,999.998,645.303z"/>
<path style="fill:#E6E6E6;" d="M708.484,603.235c24.772-6.32,65.344-15.95,109.989-23.622c21.791-4.67,41.636-8.915,58.924-12.602
	c9.135-1.859,18.845-3.401,28.118-4.28c9.21-0.851,19.163-1.19,28.428-1.063c2.231,0.141,7.344,0.233,9.482,0.364
	c1.678,0.077,7.618,0.617,9.461,0.723c2.228,0.315,7.297,0.79,9.428,1.081c1.675,0.203,7.546,1.194,9.381,1.437
	c0,0,6.214,1.195,6.214,1.195c3.366,0.538,8.952,2.003,12.353,2.743c5.708,1.469,12.623,3.508,18.217,5.333
	c11.395,3.67,24.005,9.426,35.124,14.043c6.017,2.568,12.149,5.184,18.388,7.844c103.694,40.97,304.125,127.405,459.303,195.04
	c80.435,34.153,156.269,66.408,218.96,93.225c3.136,1.257,6.378,2.958,8.747,5.492c10.566,10.894,6.117,30.259-8.869,34.664
	c-73.219,20.501-419.324,116.563-484.267,134.635c-14.685,4.005-36.5,10.202-56.14,15.609c1.762,0.817,3.531,1.636,5.305,2.459
	c52.75-16.891,33.891,2.306,23.766,11.02c0.205,0.095,0.411,0.19,0.616,0.286c151.294-44.023,490.476-144.119,522.921-166.197
	c41.894-28.485,6.083-42.195-243.465-143.22c-208.557-84.445-380.749-175.771-431.69-203.502
	c-24.112-9.67-49.428-17.058-74.882-22.117c-5.8-1.062-12.857-2.512-18.711-3.254c-7.133-1.208-17.863-2.354-25.129-3.117
	c-37.789-3.382-76.156-1.852-113.528,4.805c-5.783,0.921-12.876,2.584-18.629,3.703c-25.69,5.734-67.205,15.195-93.181,21.03
	c-34.202,7.921-72.029,16.477-111.775,25.387c-30.962,13.452-67.853,28.62-106.198,42.507
	C580.198,630.857,647.174,616.424,708.484,603.235z"/>
<path style="fill:#E6E6E6;" d="M1794.696,948.578c-22.915,7.524-70.799,20.71-167.553,43.728
	c-152.455,36.263-306.345,75.284-394.682,97.969c14.743,6.838,29.768,13.811,44.918,20.846
	c160.605-41.829,344.781-89.943,489.255-127.279c15.238-4.702,26.647-19.05,28.049-34.927
	C1794.688,948.806,1794.692,948.69,1794.696,948.578z"/>
<path style="fill:#E6E6E6;" d="M938.291,731.553c-66.346,11.058,183.558,88.462,137.116,141.539
	c-34.763,39.729,13.488,94.461,18.625,111.544c4.073-0.18,8.228-0.597,12.365-1.044c19.375-2.503,38.708-5.355,58.003-8.478
	c31.493-17.219-6.66-27.064,76.874-39.851c99.52-15.233,24.327-44.478-4.423-77.652c-16.242-18.741,55.74-6.425,118.66,11.825
	c-16.49-7.444-33.175-14.919-50.023-22.418C1197.728,803.945,987.128,723.414,938.291,731.553z"/>
<path style="fill:#E6E6E6;" d="M565.953,886.784c-87.857-40.752-223.453-102.217-251.35-106.6
	c-31.134-4.908,182.636,102.491,295.209,158.333l0,0l0.001,0c2.447,1.214,4.844,2.403,7.192,3.566
	c42.758,20.334,85.315,40.579,126.345,60.103c14.157-3.305,27.464-6.412,40.053-9.293
	C714.535,959.413,640.085,923.047,565.953,886.784z"/>
<path style="fill:#E6E6E6;" d="M1193.484,1072.205c1.846-0.513,3.646-1.016,5.372-1.499c-6.122-1.702-17.353-5.412-37.641-13.454
	C1171.666,1062.094,1182.446,1067.089,1193.484,1072.205z"/>
<path style="fill:#E6E6E6;" d="M1106.927,988.419c-4.531,0.46-9.106,0.975-13.72,1.078c-1.889,1.006-6.037,0.343-13.376-2.387
	c0,0-1.083-0.457-3.115-1.316c-6.628-2.308-13.129-4.805-19.635-7.321c-39.263-15.454-78.037-32.105-116.816-48.68
	c-53.613-23.309-107.275-46.606-160.741-70.337c24.613,11.14,49.955,22.531,74.729,33.541
	c119.423,53.077,205.45,117.212,283.078,92.885c3.198-1.002,6.135-1.981,8.843-2.94
	C1133.114,984.909,1120.034,986.748,1106.927,988.419z"/>
<path style="fill:#E6E6E6;" d="M633.121,952.309c-87.396-38.349-283.8-123.97-353.619-149.681
	c-32.716-12.047-52.799-15.754-65.833-20.288c1.788,2.451,3.819,4.725,6.073,6.761c3.458,3.186,7.468,5.689,11.737,7.66l25.729,12.1
	c133.206,62.597,287.547,135.573,434.507,205.276c12.895-2.942,25.192-5.789,36.915-8.518
	C689.015,984.514,654.577,964.829,633.121,952.309z"/>
<path style="fill:#E6E6E6;" d="M843.195,935.263c8.741-28.393-78.128-78.618-150.004-114.677c-4.029-1.843-8.055-3.69-12.08-5.542
	c-36.651-16.438-65.225-29.716-78.974-37.049c-4.743-2.529-8.417-4.981-11.157-7.352c-4.95-3.476-8.838-7.205-10.005-11
	c-0.246-0.93-0.312-1.824-0.233-2.686c-1.71-10.298,17.235-19.717,70.942-29.73c4.853-1.019,9.336-1.877,13.173-2.571
	c3.825-0.779,7.647-1.584,11.458-2.414c-16.148-2.636-153.544-23.521-184.755,23.485c-33.173,49.961,39.808,61.019,150.385,134
	c110.577,72.981,135.231,114,167.254,107.383l-0.005,0.001c27.832-6.078,51.969-10.69,73.989-13.349
	c2.62-0.473,5.242-0.938,7.864-1.404C814.989,976.001,829.269,980.5,843.195,935.263z"/>
<path style="fill:#D8D8D8;" d="M1734.944,921.116c-24.399-9.948-49.772-20.318-75.836-30.993
	c36.808,16.421,62.495,28.02,71.645,32.161C1732.185,921.885,1733.577,921.497,1734.944,921.116z"/>
<path style="fill:#D8D8D8;" d="M495.982,682.899c-199.039,53.077-260.962,42.019-260.962,42.019l0.014,0.007
	c14.419,6.867,29.442,14.042,44.954,21.469c100.349-23.73,210.859-49.569,320-74.904c94.932-24.332,172.029-44.498,236.94-54.715
	c1.079-0.248,2.171-0.499,3.248-0.746c62.866-14.106,129.499-10.516,190.58,9.923l11.392,4.008l11.233,4.434
	c20.208,8.324,48.943,20.346,77.71,32.394c68.84,26.331,149.441,59.447,228.913,93.073c-41.667-17.372-91.872-37.745-141.565-56.553
	c1.103,0.462,2.206,0.925,3.313,1.389c116.518,47.673,238.212,97.931,238.212,97.931s-0.02-0.009-0.026-0.011
	c49.178,21.254,95.594,41.604,135.782,59.362c48.49,20.497,95.507,40.435,139.324,59.109c1.222-0.341,2.427-0.676,3.594-1.002
	c10.994-3.2,15.112-17.863,6.793-26.424c-1.894-2.037-4.538-3.353-7.123-4.387c-84.033-35.795-240.789-102.664-326.496-139.194
	c0,0-369.716-157.954-369.716-157.954l-11.551-4.943c-2.793-1.165-8.703-3.707-11.553-4.799
	c-13.387-5.328-27.662-9.541-41.792-12.378c0,0-2.727-0.534-4.54-0.89c-30.613-3.253-67.396-1.302-104.312,3.142
	c-47.894,10.109-113.332,23.882-184.875,38.919C682.432,616.281,666.61,637.398,495.982,682.899z"/>
<path style="fill:#D8D8D8;" d="M1061.991,596.433c128.483,54.784,302.623,128.513,459.303,195.04
	C1366.116,723.838,1165.686,637.403,1061.991,596.433z"/>
<path style="fill:#D8D8D8;" d="M708.484,603.235c39.734-8.547,77.084-16.57,109.989-23.622
	C773.828,587.285,733.255,596.915,708.484,603.235z"/>
<path style="fill:#D8D8D8;" d="M1072.759,1397.171c3.013,0.847,6.196,1.544,9.293,1.94c3.123,0.207,6.208-0.2,9.308-0.595
	c45.523-7.195,90.243-19.152,134.912-30.436c42.372-11.234,84.718-22.805,126.581-35.866c-22.099-1.603-73.571,7.044-99.91,4.659
	c-19.811,5.601-39.687,10.962-59.636,16.045c0.99,0.055,1.526,0.08,1.526,0.08s-40.304,14.104-84.186,18.512
	c-7.018,1.22-14.061,2.302-21.146,3.145c-5.72,0.571-11.614,1.132-17.341,0.604c-3.335-0.227-6.509-1.431-9.519-2.425
	c-2.717-0.959-5.406-1.966-8.082-2.995c-1.925-0.407-3.823-0.858-5.687-1.36c-27.282-7.345-123.765-54.021-217.642-101.052
	c-59.963-29.194-119.524-59.223-178.865-89.628c-17.565-9.103-35.076-18.318-52.463-27.762c10.804,11.592,29.232,25.6,49.79,37.458
	c40.161,23.167,211.936,114.073,285.237,152.775c33.366,15.105,66.922,29.776,100.75,43.814
	C1047.856,1388.861,1060.193,1393.664,1072.759,1397.171z"/>
<path style="fill:#D8D8D8;" d="M1303.945,1351.691c-63.548,18.179-127.427,35.427-192.27,48.424
	c-6.516,1.232-13.043,2.404-19.686,3.276c-3.433,0.426-6.946,0.884-10.428,0.596c-3.325-0.447-6.875-1.181-10.081-2.101
	c-25.51-7.491-49.803-18.266-74.194-28.661c-19.263-8.466-38.464-17.13-57.613-25.94c-60.067-21.868-193.786-68.783-193.786-53.026
	c0,20.325,228.894,128.949,316.236,138.9c87.329,9.964,290.827-72.977,300.777-94.532c0.911-1.972,0.375-3.415-1.319-4.442
	C1342.42,1340.217,1323.142,1345.897,1303.945,1351.691z"/>
<path style="fill:#D8D8D8;" d="M1240.541,1320.38c30.221-38.149,109.103,4.976,142.276-34.349
	c27.408-32.494-103.75-101.086-150.123-123.926c2.51,7.358,17.261,21.661,43.964,49.354c59.712,61.923-143.75,46.442-185.77,90.673
	c-36.321,38.233,67.809,48.374,96.719,50.422c21.401-5,42.728-10.34,64.021-15.811
	C1238.457,1335.315,1232.25,1330.841,1240.541,1320.38z"/>
<path style="fill:#D8D8D8;" d="M1095.894,1089.334l12.465-0.847c18.667-1.448,37.252-4.345,55.525-8.447
	c7.81-1.846,19.388-4.996,29.6-7.835c-11.038-5.116-21.818-10.111-32.269-14.953c-8.025-3.181-17.469-7.041-28.575-11.723
	c11.12,5.376,17.922,8.89,17.956,8.908c0.001,0.001,0.003,0.001,0.004,0.002c0,0-0.001,0-0.001,0l0.001,0c0,0-0.001,0-0.001,0
	c-38.044-15.88-75.807-32.465-113.462-49.257c-34.83-12.078-68.471-19.805-85.576-12.88c-44.231,17.907-45.19,26.753,9.472,62.138
	c46.315,29.981-8.353,12.888-67.984-12.337c11.082,5.301,21.889,10.461,32.347,15.444c17.129,7.585,34.943,13.732,52.97,18.783
	c5.631,1.364,12.568,3.288,18.21,4.453c4.367,0.861,14.13,2.995,18.404,3.556c3.079,0.491,9.268,1.451,12.346,1.94
	c11.908,1.46,25.309,2.78,37.34,3.146c6.054,0.076,12.717,0.422,18.737,0.199L1095.894,1089.334z"/>
<path style="fill:#D8D8D8;" d="M968.626,1081.501c7.145,0.456,14.004,1.009,20.625,1.626c-2.063-0.531-4.108-1.076-5.796-1.485
	c-19.36-4.865-38.314-11.623-56.686-19.393c-42.945-20.633-91.579-44.179-143.366-69.356c-12.589,2.881-25.895,5.988-40.053,9.293
	c11.553,5.497,22.986,10.938,34.266,16.306C849.061,1049.703,925.684,1078.76,968.626,1081.501z"/>
<path style="fill:#D8D8D8;" d="M1280.12,1154.531c-28.769,0-44.431-1.033-47.324,3.687c41.602,10.103,155.646,40.61,227.167,86.822
	c88.764,57.367-43.972,67.044-17.838,76.995c26.148,9.951,99.917-16.58,76.694-50.861c-23.223-34.281,31.52-35.387,86.249,0
	c11.573,7.479,17.438,14.818,19.491,21.736c2.103-2.486,4.047-5.103,5.806-7.843c-1.139-0.16-2.368-0.342-3.673-0.541
	c-1.159-4.702-4.701-9.257-11.673-13.353c7.763,3.476,13.951,6.28,18.5,8.492c2.619-4.938,4.704-10.175,6.19-15.607
	c3.697-12.039,7.78-25.371,12.12-39.562c-23.358,9.575-52.094,10.107-85.456-10.484c-97.307-60.06,88.463-84.759,35.388-122.17
	c-33.42-23.551,22.772-55.29,68.972-75.56c1.509-2.291,3.149-4.529,4.897-6.706c-37.601,10.077-77.029,20.635-117.283,31.399
	c-34.95,12.406-83.899,34.328-84.277,59.902c-0.588,39.816-64.721,13.382-55.877,37.657c6.986,19.147,73.114,67.219,141.983,105.122
	c18.353,9.104,36.645,18.273,54.851,27.515c-28.556-12.552-57.111-25.347-85.619-38.361l1.58,0.764
	C1530.986,1233.574,1343.293,1154.531,1280.12,1154.531z"/>
<path style="fill:#D8D8D8;" d="M385.024,1131.418c2.597,1.934,5.334,3.682,8.2,5.204c12.909,6.613,78.482,40.174,115.645,59.174
	c29.109,6.519,54.87,8.637,61.2-1.917c16.279-27.132-121.076-45.995-117.769-81.164c3.322-35.169,69.669-54.401,117.769-59.582
	c46.853-5.059-27.455,20.381,29.892,19.164c13.823-7.347,44.546-23.356,48.618-33.04c5.373-12.779,28.057-20.813,36.49-23.407
	c-0.025-0.012-0.05-0.024-0.075-0.036c-84.145,23.062-171.006,43.736-256.145,62.714c-13.047,2.581-26.771,6.565-36.621,15.93
	c-4.885,4.683-7.79,11.408-6.823,18.254c-1.522-6.881,1.061-14.117,5.819-19.21c2.103-2.244,4.416-4.207,6.871-5.961
	c-0.05,0.026-0.105,0.052-0.155,0.077C382.516,1095.552,381.908,1115.955,385.024,1131.418z"/>
<path style="fill:#D8D8D8;" d="M1291.224,1117.614c0.862,0.381,1.724,0.761,2.586,1.142c-1.913-0.889-3.824-1.777-5.735-2.664
	L1291.224,1117.614z"/>
<path style="fill:#D8D8D8;" d="M772.768,1057.785c8.307,4.026,17.011,8.191,26.017,12.43
	C790.163,1066.096,781.491,1061.953,772.768,1057.785z"/>
<path style="fill:#D8D8D8;" d="M621.49,1129.635c-31.135-7.572-36.646-0.2-27.815,12.771c23.527,12.689,47.38,24.802,71.265,36.834
	c86.364,36.208,291.51,118.169,335.059,98.855c55.505-24.617,185.986-68.848,37.813-84.329
	c-148.174-15.481-179.135-33.841-258.751-81.055c-61.054-36.207-107.254-49.822-143.641-47.233
	c-8.06,1.84-17.366,4.067-26.969,6.602C671.462,1072.169,681.716,1144.283,621.49,1129.635z"/>
<path style="fill:#D8D8D8;" d="M1182.835,1140.647c25.229-5.536,47.594-11.785,64.56-16.982
	C1225.21,1129.517,1203.628,1135.195,1182.835,1140.647z"/>
<path style="fill:#D8D8D8;" d="M1170.991,1082.771c0,0-6.128,1.539-6.128,1.539l-6.189,1.271
	c-27.048,5.83-54.985,8.501-82.781,8.259c37.36,3.998,71.651,3.682,117.398-12.338c4.266-1.494,8.159-2.798,11.74-3.944
	c-1.774-0.823-3.542-1.642-5.305-2.459C1188.99,1078.054,1178.903,1080.775,1170.991,1082.771z"/>
<path style="fill:#D8D8D8;" d="M1224.083,1092.429c-40.322,10.361-65.035,16.826-66.757,17.277c0.063-0.018,0.162-0.047,0.281-0.081
	c-0.238,0.065-0.373,0.102-0.373,0.102c0.269-0.076,0.544-0.153,0.814-0.229c3.831-1.102,21.016-6.037,47.302-13.652
	c-45.238,7.632-163.635,23.873-257.213,3.825c7.267,3.46,14.315,6.818,21.115,10.056c-6.948-3.274-14.146-6.663-21.562-10.152
	c-9.31-2.008-18.374-4.373-27.092-7.147c-57.135-18.175-130.734-54.188-191.968-86.81c-11.723,2.729-24.02,5.576-36.915,8.518
	c72.237,34.262,142.691,67.732,207.973,98.79c11.313,5.447,22.89,10.335,34.668,14.674c3.234,1.165,6.448,2.304,9.639,3.412
	c51.775,17.568,107.159,24.431,161.659,19.427c10.171-0.971,24.985-2.771,34.984-4.76c6.438-1.258,14.378-2.7,20.731-4.38
	c36.493-9.477,75.503-19.627,116.01-30.177c-15.15-7.036-30.175-14.008-44.918-20.846
	C1229.599,1091.011,1226.806,1091.729,1224.083,1092.429z"/>
<path style="fill:#D8D8D8;" d="M1227.969,1089.282c0.476-0.138,0.963-0.28,1.443-0.42c-0.205-0.095-0.411-0.19-0.616-0.286
	C1228.513,1088.82,1228.237,1089.056,1227.969,1089.282z"/>
<path style="fill:#D8D8D8;" d="M590.979,770.643c2.741,2.371,6.414,4.823,11.157,7.352c0,0,2.562,1.097,7.147,3.115
	C603.401,778.112,596.525,774.538,590.979,770.643z"/>
<path style="fill:#D8D8D8;" d="M613.97,783.503c-7.601-3.532-11.833-5.507-11.833-5.507c13.749,7.333,42.324,20.611,78.974,37.049
	c-21.442-9.862-42.83-19.835-64.143-29.959C616.057,784.588,615.048,784.059,613.97,783.503z"/>
<path style="fill:#D8D8D8;" d="M664.855,724.656c-3.837,0.693-8.319,1.551-13.173,2.571l0,0
	C656.069,726.409,660.464,725.55,664.855,724.656z"/>
<path style="fill:#D8D8D8;" d="M951.561,616.553c-17.065,2.899-39.808,6.635-37.596,28.75c2.212,22.116,72.981,61.923,28.75,39.808
	c-18.149-9.075-28.092-12.933-38.25-12.651c133.619,56.175,269.618,112.306,403.097,171.083
	c-125.935-61.517-353.168-179.926-307.563-198.24c17.114-6.872,68.012,5.721,130.04,26.343
	c-28.988-12.094-58.005-24.204-78.55-32.659c0,0-11.081-4.359-11.081-4.359l-11.238-3.938
	c-23.873-8.023-48.605-13.413-73.625-16.154C955.497,615.373,954.066,616.127,951.561,616.553z"/>
<path style="fill:#D8D8D8;" d="M861.909,616.733c3.375-0.507,6.635-0.976,9.797-1.413
	C868.433,615.743,865.168,616.217,861.909,616.733z"/>
<path style="fill:#D8D8D8;" d="M1088.294,984.357c1.833,0.386,3.762,0.379,5.671,0.283c0.022-0.001,0.045-0.003,0.067-0.004
	c-5.137-17.082-53.388-71.815-18.625-111.544c46.443-53.077-203.462-130.482-137.116-141.539
	c48.837-8.14,259.436,72.392,367.196,115.466c-132.184-58.832-273.827-118.963-401.075-174.557
	c-14.581,0.425-29.635,9.379-70.064,23.707c-68.643,24.327-77.404,28.75-15.481,70.129c61.923,41.379-99.52,22.756-19.904,63.178
	c65.779,33.397,155.772,93.898,185.067,113.92c24.879,10.334,49.805,20.549,74.789,30.607
	C1068.576,977.678,1078.297,981.69,1088.294,984.357z"/>
<path style="fill:#D8D8D8;" d="M1093.207,989.497c-0.79,0.018-1.581,0.027-2.374,0.017c-3.359-0.068-6.776-1.293-9.882-2.268
	c-1.421-0.47-2.827-0.963-4.235-1.453c2.032,0.859,3.115,1.316,3.115,1.316C1087.17,989.84,1091.318,990.503,1093.207,989.497z"/>
<path style="fill:#D8D8D8;" d="M809.198,987.11c-32.022,6.616-56.676-34.402-167.254-107.383
	c-110.577-72.981-183.558-84.039-150.385-134c31.211-47.006,168.606-26.121,184.755-23.485
	c109.626-23.884,210.283-68.093,110.338-68.093c-58.369,0-118.96,8.155-132.275,8.686c-80.211,18.059-162.977,36.621-241.616,54.136
	c-12.775,5.875-35.526,20.666-27.649,49.326c6.709,24.411,42.883,48.971,69.189,64.013
	c110.752,53.513,229.044,110.891,333.981,161.464c7.117-1.612,30.138-6.662,58.962-11.285c11.965-2.31,23.942-4.561,35.938-6.727
	c-22.02,2.659-46.157,7.271-73.989,13.349L809.198,987.11z"/>
<path style="fill:#C9C9C9;" d="M676.314,722.242c-3.811,0.83-7.633,1.635-11.458,2.414c-4.391,0.894-8.786,1.753-13.173,2.571l0,0
	c-53.707,10.013-72.651,19.432-70.942,29.73c0.797-8.678,16.842-13.952,23.405-16.527c23.971-8.23,48.936-13.008,73.735-17.926
	c-24.697,5.274-49.549,10.466-73.38,18.907c-5.866,2.215-11.748,4.572-16.889,8.171c-12.52,8.646-0.909,16.644,7.893,22.054
	c14.498,8.482,29.914,15.435,45.196,22.453c113.906,50.875,228.096,101.441,343.328,149.307
	c-29.295-20.021-119.288-80.523-185.067-113.92c-79.616-40.422,81.827-21.799,19.904-63.178
	c-61.923-41.379-53.162-45.802,15.481-70.129c40.429-14.328,55.482-23.282,70.064-23.707c-0.472-0.206-0.949-0.414-1.421-0.62
	c0.49,0.206,0.982,0.412,1.472,0.618c10.158-0.282,20.101,3.576,38.25,12.651c44.231,22.115-26.538-17.692-28.75-39.808
	c-2.212-22.115,20.531-25.852,37.596-28.75c2.506-0.425,3.936-1.179,3.983-2.018c-27.847-3.051-56.052-2.809-83.839,0.785
	c-3.162,0.438-6.422,0.906-9.797,1.413c-6.939,1.099-13.848,2.396-20.711,3.918c-58.189,13.175-121.661,27.514-186.821,42.185
	c13.314-0.531,73.906-8.686,132.275-8.686C886.597,654.149,785.94,698.357,676.314,722.242z"/>
<path style="fill:#C9C9C9;" d="M385.112,766.297c-7.877-28.66,14.874-43.451,27.649-49.326
	c-46.126,10.274-90.832,20.188-132.762,29.427c53.363,25.546,112.657,54.125,174.303,83.911
	C427.995,815.268,391.822,790.708,385.112,766.297z"/>
<path style="fill:#F2F2F2;" d="M1436.957,902.368c-7.537-6.456-24.935-14.214-46.539-21.815
	c11.859,5.382,23.696,10.784,35.495,16.22C1429.601,898.581,1433.316,900.394,1436.957,902.368z"/>
<path style="fill:#F2F2F2;" d="M1236.85,857.611c28.75,33.173,103.943,62.418,4.423,77.652
	c-83.534,12.786-45.381,22.632-76.874,39.851c55.524-8.986,110.727-20.249,165.655-32.157c24.628-5.558,49.214-11.354,73.429-18.456
	c8.035-2.4,16.059-4.903,23.766-7.963c3.717-1.486,7.557-3.149,10.762-5.376c0.721-0.53,1.381-1.143,1.663-1.575
	c0.026-0.046,0.047-0.086,0.065-0.12c-0.046-0.052-0.169-0.127-0.226-0.196c-1.439-0.974-2.893-1.833-4.45-2.664
	c-7.342-3.964-14.977-7.58-22.537-11.177c-18.67-8.605-37.71-17.277-57.017-25.992
	C1292.591,851.187,1220.609,838.871,1236.85,857.611z"/>
<path style="fill:#F2F2F2;" d="M1439.821,909.559C1439.83,909.572,1439.832,909.572,1439.821,909.559L1439.821,909.559z"/>
<path style="fill:#F2F2F2;" d="M1161.215,1057.252c20.287,8.042,31.519,11.751,37.641,13.454c2.68-0.75,5.184-1.454,7.388-2.073
	c97.736-27.321,411.608-114.884,524.357-146.307l-212.083-89.95c-107.309-44.187-217.164-89.636-312.007-128.951
	c-14.449-5.941-32.839-13.587-52.369-21.727c42.5,22.706,96.124,53.789,45.112,40.806c-77.404-19.701,59.712,61.269,223.366,122.515
	c163.655,61.246,256.54,61.615,115,93.498c-141.539,31.883-276.443,89.973-342.79,76.409c-51.167-10.461-21.342-30.453-5.015-39.055
	c-14.521,2.512-29.068,4.874-43.642,7.07c-2.708,0.958-5.645,1.938-8.843,2.94c-77.628,24.327-163.655-39.808-283.078-92.885
	c-24.774-11.01-50.116-22.401-74.729-33.541c-28.848-12.805-57.637-25.74-86.333-38.869
	c71.877,36.059,158.745,86.284,150.004,114.677c-13.926,45.237-28.206,40.738,47.851,37.096c1.391-0.247,2.78-0.5,4.172-0.744
	c10.96-1.562,22.023-2.277,33.098-2.149c26.182,0.432,52.265,5.883,76.419,16.006c5.31,2.289,11.208,4.953,16.407,7.398
	c33.766,15.656,67.475,31.418,100.974,47.637c3.826,1.802,7.349,3.486,10.525,5.022
	C1143.747,1050.211,1153.19,1054.071,1161.215,1057.252z"/>
<path style="fill:#F2F2F2;" d="M609.284,781.11c-4.586-2.017-7.147-3.115-7.147-3.115s4.232,1.975,11.833,5.507
	C612.522,782.755,610.943,781.956,609.284,781.11z"/>
<path style="fill:#F2F2F2;" d="M1224.083,1092.429c2.722-0.7,5.516-1.418,8.378-2.153c88.337-22.685,242.227-61.706,394.682-97.969
	c96.755-23.019,144.638-36.205,167.553-43.728c0.346-8.971,0.355-21.85,0.381-33.611c-3.559,11.494-12.098,21.385-23.695,25.597
	c-1.008,0.458-2.085,0.712-3.127,1.07c-4.208,1.454-207.532,57.141-217.968,60.184c-0.001,0-379.351,104.147-392.679,107.806
	c-0.119,0.034-0.219,0.063-0.281,0.081C1159.048,1109.255,1183.761,1102.79,1224.083,1092.429z"/>
<path style="fill:#F2F2F2;" d="M633.121,952.309c21.456,12.519,55.894,32.204,95.51,53.31
	c61.234,32.623,134.833,68.635,191.968,86.81c8.718,2.773,17.782,5.139,27.092,7.147
	c-195.103-91.785-545.768-254.905-727.873-342.38c-7.32-4.87-12.327-12.025-14.907-19.98c0.024,8.594,0.046,18.058,0.19,20.818
	c0.335,8.735,3.431,17.264,8.568,24.307c13.034,4.534,33.116,8.241,65.833,20.288C349.321,828.339,545.725,913.961,633.121,952.309z
	"/>
<path style="fill:#F2F2F2;" d="M609.812,938.517L609.812,938.517c-112.573-55.842-326.343-163.241-295.209-158.333
	c27.897,4.383,163.494,65.848,251.35,106.6c-55.222-27.013-110.252-53.961-162.663-79.615
	c-83.958-40.645-159.756-77.515-168.266-82.247c-19.915-11.058,15.473-15.487,150.081-42.018
	c37.34-7.362,78.656-19.844,118.874-34.031c-95.94,20.131-186.564,39.121-246.845,51.717
	c63.317-13.679,158.407-34.219,258.009-55.702c38.345-13.887,75.236-29.055,106.198-42.507
	c-130.697,29.3-282.168,62.435-393.901,89.456c-12.071,5.316-20.066,17.88-20.588,31.003c-0.677,12.127,5.06,24.345,15.162,31.166
	c0,0,2.56,1.62,2.56,1.62l2.687,1.415c97.531,46.152,244.77,116.098,389.742,185.042C614.657,940.92,612.26,939.731,609.812,938.517
	L609.812,938.517z"/>
<path style="fill:#F2F2F2;" d="M1205.351,1095.847c-26.287,7.615-43.472,12.55-47.302,13.652
	c140.305-39.529,470.066-132.077,606.248-170.072c33.85-7.562,40.21-53.547,8.768-69.389c-3.038-1.459-8.405-3.631-11.599-4.997
	c-184.029-77.391-498.226-210.737-680.471-287.549c-1.268-0.524-2.541-1.037-3.816-1.548
	c50.942,27.731,223.133,119.058,431.69,203.502c249.547,101.025,285.359,114.735,243.465,143.22
	c-32.445,22.077-371.627,122.174-522.921,166.197c-0.48,0.14-0.967,0.281-1.443,0.42c0.268-0.226,0.544-0.462,0.827-0.705
	c10.125-8.714,28.985-27.911-23.766-11.02c-3.581,1.146-7.474,2.45-11.74,3.944c-45.747,16.019-80.038,16.336-117.398,12.338
	c-10.133-0.089-20.248-0.553-30.293-1.409c-6.284-0.612-12.555-1.386-18.826-2.125c-3.106-0.497-9.365-1.505-12.471-2.003
	c-4.297-0.54-14.222-2.809-18.585-3.656c-1.873-0.355-4.182-0.928-6.468-1.518c-6.621-0.617-13.48-1.17-20.625-1.626
	c-42.942-2.741-119.565-31.799-191.01-63.009c63.37,30.158,121.967,58.055,170.522,81.18
	C1041.717,1119.72,1160.114,1103.479,1205.351,1095.847z"/>
<path style="fill:#CCCCCC;" d="M1283.835,1114.04c-0.148,0.039-0.295,0.078-0.442,0.117c2.611,1.148,5.221,2.304,7.832,3.457
	l-3.149-1.523L1283.835,1114.04z"/>
<path style="fill:#CCCCCC;" d="M1054.556,1369.838c-6.791-2.612-13.479-5.406-20.167-8.214
	c-68.411-29.886-136.039-61.518-203.162-94.198c93.877,47.031,190.36,93.707,217.642,101.052
	C1050.733,1368.98,1052.631,1369.431,1054.556,1369.838z"/>
<path style="fill:#CCCCCC;" d="M1193.305,1352.918c-13.443,3.425-26.917,6.732-40.429,9.888
	c-14.017,3.164-28.068,6.241-42.231,8.704c43.881-4.409,84.186-18.512,84.186-18.512S1194.295,1352.973,1193.305,1352.918z"/>
<path style="fill:#CCCCCC;" d="M648.579,1039.256c-4.072,9.684-34.794,25.692-48.618,33.04c0.24-0.005,0.484-0.011,0.729-0.017
	c28.87-7.405,58.169-12.96,87.557-17.84c-9.912,1.902-19.81,3.875-29.68,5.966c-4.124,0.905-12.561,2.656-23.147,5.073
	c36.387-2.588,82.587,11.026,143.641,47.233c79.616,47.214,110.577,65.574,258.751,81.055
	c148.174,15.481,17.692,59.712-37.813,84.329c-43.549,19.314-248.695-62.647-335.059-98.855c14.5,7.305,29.009,14.583,43.46,21.949
	c72.178,36.122,144.721,71.54,217.614,106.197c45.641,21.308,90.936,43.711,137.783,62.159c2.332,0.827,4.738,1.662,6.982,2.141
	c4.795,0.717,9.816,0.472,14.656,0.109c12.486-1.014,24.929-3.12,37.276-5.385c21.736-4.133,43.355-8.823,64.898-13.856
	c-28.91-2.048-133.04-12.189-96.719-50.422c42.019-44.231,245.482-28.75,185.77-90.673c-26.703-27.692-41.454-41.996-43.964-49.354
	c-9.082-4.473-14.909-7.19-15.658-7.539c-0.03-0.012-0.059-0.024-0.089-0.036c0.022,0.008,0.043,0.017,0.065,0.025
	c-0.011-0.005-0.028-0.013-0.036-0.016c0.447,0.095,6.196,1.341,15.82,3.678c2.893-4.72,18.555-3.687,47.324-3.687
	c63.173,0,250.866,79.043,250.866,79.043l-1.58-0.764c-82.894-37.839-165.379-77.541-246.286-118.581
	c-12.056,3.188-23.974,6.336-35.725,9.436c-16.966,5.197-39.331,11.446-64.56,16.982c-6.868,1.801-13.66,3.58-20.347,5.33
	c-13.217,3.343-28.605,5.916-42.17,7.808c-75.747,9.66-154.036-3.1-222.743-36.42c-31.834-15.181-64.899-30.961-98.79-47.149
	c-9.006-4.239-17.71-8.404-26.017-12.43c-28.796-13.76-58.108-27.777-87.699-41.936
	C676.636,1018.442,653.952,1026.477,648.579,1039.256z"/>
<path style="fill:#CCCCCC;" d="M943.996,1131.014c-3.191-1.109-6.405-2.247-9.639-3.412
	C937.555,1128.78,940.768,1129.918,943.996,1131.014z"/>
<path style="fill:#CCCCCC;" d="M961.033,1054.439c-54.663-35.385-53.703-44.231-9.472-62.138
	c17.104-6.925,50.746,0.802,85.576,12.88c-9.619-4.289-19.232-8.589-28.839-12.898c-10.766-4.743-22.004-8.748-33.418-11.577
	c-22.858-5.919-46.739-7.796-70.267-5.829c-38.514,4.82-76.796,12.237-115.314,17.387c36.509,17.594,71.381,34.354,103.751,49.838
	C952.68,1067.327,1007.349,1084.42,961.033,1054.439z"/>
<polygon style="fill:#CCCCCC;" points="1150.599,1054.438 1150.599,1054.438 1150.6,1054.439 "/>
<path style="fill:#CCCCCC;" d="M788.282,991.774c0.249,0.12,0.497,0.239,0.745,0.359c19.393-3.987,38.79-7.894,58.216-11.644
	C818.42,985.113,795.399,990.162,788.282,991.774z"/>
<path style="fill:#CCCCCC;" d="M1122.115,1040.507c9.511,4.605,19.008,9.241,28.481,13.93c-0.034-0.018-6.836-3.532-17.956-8.908
	C1129.464,1043.994,1125.942,1042.31,1122.115,1040.507z"/>
<path style="fill:#E8E8E8;" d="M1382.817,1286.031c-33.174,39.325-112.055-3.8-142.276,34.349
	c-8.291,10.461-2.083,14.935,11.087,16.363c6.134-1.576,12.266-3.163,18.396-4.756c-5.688,1.649-11.384,3.274-17.083,4.885
	c26.339,2.385,77.811-6.262,99.91-4.659c21.101-6.583,42.081-13.538,62.875-21.032c15.391-5.737,30.803-11.508,45.156-19.42
	c3.979-2.359,8.285-4.764,10.873-8.477c1.468-2.466-0.608-4.845-2.117-6.889c-5.295-6.064-12.152-10.524-18.932-14.99
	c-5.524-3.532-11.204-6.851-16.948-10.062c-69.704-37.478-143.431-67.05-216.723-96.777c0.749,0.348,6.576,3.065,15.658,7.539
	C1279.067,1184.945,1410.225,1253.537,1382.817,1286.031z"/>
<path style="fill:#E8E8E8;" d="M621.49,1129.635c60.226,14.647,49.972-57.466-13.041-57.556
	c-35.15,9.276-74.262,22.675-70.669,36.341c0,0,0.286,0.714,0.286,0.714c0.044,0.054,0.079,0.11,0.109,0.172l0.222,0.264
	c2.745,2.781,6.231,4.824,9.519,6.995c15.052,8.963,30.337,17.523,45.759,25.841C584.844,1129.435,590.355,1122.063,621.49,1129.635
	z"/>
<path style="fill:#E8E8E8;" d="M1605.068,1271.173c-54.729-35.387-109.472-34.281-86.249,0
	c23.223,34.281-50.546,60.812-76.694,50.861c-26.134-9.95,106.601-19.628,17.838-76.995
	c-71.521-46.212-185.565-76.719-227.167-86.822c-9.624-2.337-15.373-3.583-15.82-3.678c0.008,0.004,0.025,0.011,0.036,0.016
	c73.949,28.352,148.131,57.022,218.269,94.035c11.13,6.359,35.075,18.985,40.002,30.215c1.799,4.238-0.99,7.915-4.084,10.437
	c-5.29,4.393-11.275,7.417-17.32,10.458c-29.876,13.803-60.93,24.615-92.295,34.486c1.693,1.027,2.23,2.47,1.319,4.442
	c-9.951,21.555-213.449,104.497-300.777,94.532c-87.342-9.951-316.236-118.575-316.236-138.9
	c0-15.757,133.719,31.158,193.786,53.026c-76.858-35.36-152.855-73.156-228.437-110.77c-45.882-23.043-95.474-48.351-141.168-72.052
	c0,0,71.064,35.061,71.064,35.061c97.66,47.363,194.887,95.969,293.793,140.745c-73.301-38.703-245.076-129.609-285.237-152.775
	c-20.558-11.858-38.986-25.866-49.79-37.458c-9.238-5.018-18.443-10.096-27.599-15.264c-10.958-6.321-22.094-12.469-32.407-19.908
	c-1.45-1.125-3.023-2.293-4.181-3.824c-1.315-2.126-1.536-4.868-0.831-7.218c5.172-15.968,48.856-26.869,64.353-31.179
	c0.485-0.125,0.971-0.24,1.456-0.365c-0.245,0.006-0.489,0.012-0.729,0.017c-57.347,1.217,16.961-24.223-29.892-19.164
	c-48.1,5.18-114.447,24.413-117.769,59.582c-3.308,35.169,134.048,54.032,117.769,81.164c-6.33,10.555-32.091,8.437-61.2,1.917
	c10.413,5.324,18.596,9.505,22.764,11.629c128.393,65.153,316.082,162.792,442.688,226.947
	c37.344,16.991,79.378,23.455,120.083,18.195c9.987-1.273,20.403-3.373,30.141-6.013c122.574-34.474,326.566-91.941,449.086-126.162
	c0,0,14.959-4.206,14.959-4.206c4.888-1.387,9.602-3.346,14.102-5.696c4.375-2.267,8.874-5.295,12.653-8.452
	c3.353-2.764,6.425-5.83,9.215-9.128C1622.506,1285.991,1616.641,1278.653,1605.068,1271.173z"/>
<path style="fill:#A0A0A3;" d="M1158.674,1085.581l6.189-1.271c0,0,6.127-1.539,6.128-1.539c7.912-1.997,18-4.718,28.735-7.673
	c19.64-5.408,41.455-11.604,56.14-15.609c64.943-18.072,411.048-114.134,484.267-134.635c14.986-4.405,19.435-23.77,8.869-34.664
	c-2.369-2.534-5.611-4.235-8.747-5.492c-62.692-26.818-138.526-59.073-218.96-93.225c-156.681-66.527-330.82-140.256-459.303-195.04
	c-6.239-2.66-12.372-5.276-18.388-7.844c-11.119-4.617-23.729-10.373-35.124-14.043c-5.594-1.826-12.509-3.864-18.217-5.333
	c-3.401-0.74-8.987-2.206-12.353-2.743c0,0-6.213-1.195-6.214-1.195c-1.835-0.243-7.706-1.234-9.381-1.437
	c-2.131-0.29-7.2-0.765-9.428-1.081c-1.844-0.106-7.783-0.646-9.461-0.723c-2.138-0.131-7.25-0.223-9.482-0.364
	c-9.265-0.127-19.219,0.212-28.428,1.063c-9.273,0.878-18.983,2.42-28.118,4.28c-17.289,3.687-37.133,7.932-58.924,12.602
	c-32.904,7.052-70.255,15.075-109.989,23.622c-61.31,13.188-128.286,27.622-193.34,41.654
	c-99.603,21.484-194.693,42.024-258.009,55.702c60.281-12.597,150.905-31.586,246.845-51.717
	c59.785-12.545,121.633-25.533,179.493-37.695c71.543-15.038,136.98-28.811,184.875-38.919c3.323-0.701,6.567-1.386,9.718-2.051
	c7.919-1.628,16.622-2.965,24.658-3.8c10.137-1.121,20.949-1.425,31.147-1.282c3.082,0.146,5.946,0.215,9.349,0.391
	c1.599,0.078,7.825,0.69,9.327,0.744c3.009,0.39,5.983,0.656,9.292,1.097l3.081,0.483l6.162,0.965c0,0,0.679,0.133,1.58,0.31
	c1.813,0.355,4.54,0.89,4.54,0.89c14.13,2.837,28.406,7.05,41.792,12.378c2.85,1.092,8.76,3.634,11.553,4.799l11.551,4.943
	c0,0,369.716,157.954,369.716,157.954c85.708,36.53,242.463,103.399,326.496,139.194c2.585,1.033,5.229,2.35,7.123,4.387
	c8.319,8.561,4.201,23.224-6.793,26.424c-1.168,0.325-2.372,0.661-3.594,1.002c-43.817-18.674-90.834-38.612-139.324-59.109
	c-124.813-52.759-259.34-109.208-373.968-157.282c-1.106-0.464-2.21-0.927-3.313-1.389c-3.386-1.42-6.761-2.835-10.11-4.24
	c-20.295-8.417-48.782-20.362-77.238-32.28c-28.767-12.048-57.501-24.07-77.71-32.394l-11.233-4.434l-11.392-4.008
	c-61.081-20.438-127.714-24.029-190.58-9.923c-1.077,0.247-2.169,0.498-3.248,0.746c-75.036,17.236-155.6,35.834-236.94,54.715
	c-109.141,25.335-219.651,51.174-320,74.904c-15.512-7.426-30.535-14.602-44.954-21.469c-0.005-0.002-0.009-0.004-0.014-0.007
	c49.973,24.363,107.351,52.431,168.271,82.251c52.411,25.654,107.441,52.602,162.663,79.615
	c74.132,36.263,148.582,72.629,217.449,106.109c51.787,25.176,100.421,48.723,143.366,69.356
	c18.372,7.77,37.326,14.528,56.686,19.393c1.688,0.409,3.733,0.954,5.796,1.485c2.286,0.589,4.595,1.163,6.468,1.518
	c4.362,0.847,14.288,3.116,18.585,3.656c3.106,0.498,9.365,1.506,12.471,2.003c6.27,0.74,12.542,1.514,18.826,2.125
	c10.046,0.856,20.16,1.321,30.293,1.409C1103.689,1094.082,1131.626,1091.41,1158.674,1085.581z M1064.666,1089.424
	c-12.031-0.366-25.433-1.686-37.34-3.146c-3.078-0.489-9.267-1.449-12.346-1.94c-4.274-0.561-14.037-2.695-18.404-3.556
	c-5.642-1.164-12.58-3.089-18.21-4.453c-18.028-5.052-35.842-11.198-52.97-18.783c-10.458-4.983-21.264-10.143-32.347-15.444
	c-32.369-15.483-67.242-32.244-103.751-49.838c38.518-5.15,76.8-12.566,115.314-17.387c23.529-1.967,47.409-0.09,70.267,5.829
	c11.414,2.829,22.652,6.834,33.418,11.577c9.607,4.309,19.221,8.608,28.839,12.898c37.656,16.792,75.418,33.377,113.462,49.257
	c0,0,0,0,0,0c0,0,0.001,0,0.001,0c-0.001,0-0.003-0.001-0.004-0.002c-9.473-4.688-18.97-9.324-28.481-13.93
	c-33.499-16.22-67.207-31.981-100.974-47.637c-5.198-2.445-11.097-5.109-16.407-7.398c-24.154-10.123-50.236-15.573-76.419-16.006
	c-11.075-0.128-22.138,0.587-33.098,2.149c-1.392,0.244-2.781,0.498-4.172,0.744c-2.622,0.465-5.244,0.93-7.864,1.404
	c-11.996,2.166-23.973,4.417-35.938,6.727c-19.427,3.75-38.824,7.657-58.216,11.644c-0.249-0.12-0.496-0.239-0.745-0.359
	C683.345,941.201,565.054,883.823,454.301,830.31c-61.646-29.786-120.94-58.366-174.303-83.911
	c41.93-9.24,86.636-19.154,132.762-29.427c78.639-17.515,161.405-36.077,241.616-54.136c65.161-14.671,128.633-29.01,186.821-42.185
	c6.862-1.521,13.771-2.819,20.711-3.918c3.259-0.516,6.524-0.99,9.797-1.413c27.786-3.594,55.991-3.836,83.839-0.785
	c25.02,2.741,49.752,8.132,73.625,16.154l11.238,3.938c0,0,11.082,4.359,11.081,4.359c20.545,8.455,49.562,20.565,78.55,32.659
	c8.1,3.379,16.194,6.756,24.104,10.052c19.53,8.14,37.92,15.785,52.369,21.727c94.843,39.314,204.697,84.764,312.007,128.951
	c47.891,19.72,95.274,39.189,140.59,57.747c26.064,10.674,51.437,21.045,75.836,30.993c-1.366,0.381-2.758,0.769-4.191,1.168
	c-0.05,0.014-0.102,0.028-0.152,0.042c-112.749,31.423-426.62,118.987-524.357,146.307c-2.205,0.619-4.708,1.323-7.388,2.073
	c-1.726,0.483-3.526,0.986-5.372,1.499c-10.212,2.839-21.79,5.989-29.6,7.835c-18.273,4.102-36.858,6.999-55.525,8.447
	l-12.465,0.847l-12.491,0.29C1077.383,1089.846,1070.72,1089.5,1064.666,1089.424z"/>
<path style="fill:#A0A0A3;" d="M1796.605,898.185c-0.957-8.814-4.886-17.337-11.197-23.604c-4.554-4.749-10.676-7.953-16.683-10.349
	l-5.86-2.495c0,0-23.438-9.98-23.437-9.98c-172.592-73.199-485.782-206.959-656.571-278.814
	c-29.503-12.246-60.731-20.888-92.189-26.345c-4.558-0.68-11.301-1.68-15.84-2.357c-13.366-1.556-28.07-3.029-41.49-3.279
	c-30.873-1.128-62.029,1.491-92.437,6.956c-73.161,15.713-232.252,52.507-307.621,69.348
	c-68.863,16.177-239.801,53.374-306.04,70.121c-5.67,2.376-10.855,6.033-14.843,10.729c-9.249,10.65-11.63,25.52-7.694,38.417
	c-0.079,7.433-0.165,15.364-0.075,21.518c0.291,11.96,5.705,23.62,14.505,31.716c3.488,3.281,7.588,5.895,11.898,7.935
	c0,0,25.608,12.355,25.608,12.355c7.646,3.691,15.372,7.418,23.156,11.173c0,0,0.001,0,0.001,0c0.034,0.117,0.068,0.236,0.101,0.354
	c22.141,77.376,56.018,198.773,78.241,275.35c4.938,17.877,17.309,33.524,33.667,42.314c16.453,8.805,120.638,62.286,138.065,71.595
	c127.333,65.429,316.202,164.216,442.377,228.073c40.568,18.408,86.585,24.707,130.549,17.322c7.475-1.14,15.689-3.039,23.027-5.006
	c63.138-17.71,262.611-74.711,329.06-93.61c8.384-2.286,129.734-37.249,134.56-38.498c6.345-1.859,12.432-4.573,18.096-7.958
	c7.852-4.752,15.007-11.047,20.687-18.242c4.907-6.228,8.708-13.244,11.582-20.627c21.871-70.734,53.018-179.8,76.105-256.925
	c1.669-5.576,3.295-10.979,4.873-16.195c0.188-0.622,0.376-1.241,0.563-1.858c10.85-2.909,21.503-5.766,31.917-8.559
	c3.879-1.059,10.005-2.617,13.734-3.798c14.952-4.788,26.332-18.649,28.147-34.206c0.446-3.526,0.4-7.16,0.328-10.69
	c-0.041-5.511-0.107-16.141-0.168-25.877C1796.794,909.035,1797.288,903.581,1796.605,898.185z M1766.634,983.844
	c-144.474,37.336-328.651,85.45-489.255,127.279c-40.507,10.55-79.517,20.701-116.01,30.177c-6.353,1.68-14.292,3.123-20.731,4.38
	c-9.999,1.989-24.812,3.789-34.984,4.76c-54.5,5.004-109.884-1.859-161.659-19.427c-3.228-1.095-6.44-2.234-9.639-3.412
	c-11.778-4.339-23.355-9.227-34.668-14.674c-65.282-31.058-135.736-64.529-207.973-98.79
	c-146.96-69.703-301.301-142.679-434.507-205.276l-25.729-12.1c-4.269-1.971-8.279-4.474-11.737-7.66
	c-2.254-2.036-4.285-4.31-6.073-6.761c-5.137-7.043-8.234-15.572-8.568-24.307c-0.143-2.759-0.166-12.224-0.19-20.818
	c2.58,7.956,7.587,15.11,14.907,19.98c182.105,87.475,532.77,250.595,727.873,342.38c7.416,3.489,14.613,6.877,21.562,10.152
	c-6.799-3.238-13.848-6.595-21.115-10.056c-48.555-23.124-107.152-51.021-170.522-81.18c-11.281-5.368-22.713-10.809-34.266-16.306
	c-41.03-19.523-83.587-39.769-126.345-60.103c-144.973-68.944-292.211-138.89-389.742-185.042l-2.687-1.415
	c0,0-2.561-1.62-2.56-1.62c-10.101-6.821-15.839-19.039-15.162-31.166c0.522-13.124,8.517-25.687,20.588-31.003
	c111.733-27.021,263.203-60.156,393.901-89.456c39.746-8.91,77.573-17.466,111.775-25.387c25.977-5.835,67.491-15.296,93.181-21.03
	c5.754-1.119,12.847-2.782,18.629-3.703c37.372-6.657,75.738-8.187,113.528-4.805c7.266,0.763,17.996,1.909,25.129,3.117
	c5.854,0.742,12.911,2.192,18.711,3.254c25.454,5.059,50.77,12.447,74.882,22.117c1.275,0.511,2.548,1.024,3.816,1.548
	c182.246,76.813,496.443,210.159,680.471,287.549c3.194,1.366,8.561,3.539,11.599,4.997c31.442,15.842,25.082,61.827-8.768,69.389
	c-136.182,37.994-465.943,130.542-606.248,170.072c-0.27,0.076-0.546,0.154-0.814,0.229c0,0,0.134-0.037,0.373-0.102
	c13.328-3.659,392.678-107.807,392.679-107.806c10.437-3.043,213.76-58.73,217.968-60.184c1.042-0.359,2.119-0.612,3.127-1.07
	c11.597-4.212,20.136-14.103,23.695-25.597c-0.026,11.761-0.035,24.64-0.381,33.611c-0.004,0.111-0.008,0.228-0.013,0.338
	C1793.281,964.794,1781.872,979.142,1766.634,983.844z M684.673,1015.659c-85.414,17.419-172.125,38.178-256.578,59.678
	c-10.456,2.492-21.197,5.915-30,12.203c-2.455,1.753-4.768,3.717-6.871,5.961c-4.759,5.093-7.341,12.329-5.819,19.21
	c-0.967-6.846,1.937-13.572,6.823-18.254c9.85-9.365,23.574-13.349,36.621-15.93c85.14-18.978,172-39.652,256.145-62.714
	c0.025,0.012,0.05,0.024,0.075,0.036c29.591,14.159,58.903,28.176,87.699,41.936c8.723,4.168,17.395,8.312,26.017,12.43
	c33.89,16.188,66.955,31.969,98.79,47.149c68.707,33.32,146.996,46.08,222.743,36.42c13.564-1.892,28.953-4.465,42.17-7.808
	c6.687-1.749,13.479-3.529,20.347-5.33c20.793-5.452,42.375-11.13,64.56-16.982c11.751-3.1,23.669-6.248,35.725-9.436
	c80.907,41.04,163.392,80.742,246.286,118.581c28.508,13.013,57.063,25.809,85.619,38.361
	c-18.206-9.242-36.498-18.411-54.851-27.515c-87.74-43.525-177.001-85.397-266.364-124.9c-0.862-0.381-1.724-0.761-2.586-1.142
	c-2.61-1.153-5.221-2.308-7.832-3.457c0.148-0.039,0.295-0.078,0.442-0.117c88.053-23.287,183.4-48.703,274.51-73.065
	c40.254-10.764,79.682-21.322,117.283-31.399c15.577-4.174,30.835-8.265,45.715-12.255
	c-15.734,50.958-38.123,124.405-57.846,188.987c-4.028,13.189-7.944,26.006-11.669,38.188c-4.34,14.191-8.423,27.523-12.12,39.562
	c-1.486,5.433-3.57,10.669-6.19,15.607c-0.978,1.844-2.027,3.647-3.153,5.401c-1.759,2.74-3.703,5.357-5.806,7.843
	c-2.79,3.299-5.862,6.364-9.215,9.128c-3.779,3.157-8.278,6.186-12.653,8.452c-4.5,2.35-9.214,4.309-14.102,5.696
	c0,0-14.96,4.206-14.959,4.206c-122.52,34.221-326.512,91.687-449.086,126.162c-9.738,2.64-20.154,4.74-30.141,6.013
	c-40.704,5.26-82.738-1.204-120.083-18.195c-126.605-64.155-314.295-161.794-442.688-226.947
	c-4.169-2.125-12.351-6.305-22.764-11.629c-37.163-19-102.736-52.561-115.645-59.174c-2.866-1.522-5.603-3.27-8.2-5.204
	c-10.622-7.911-18.825-19.041-23.154-31.585c-0.096-0.266-0.195-0.561-0.296-0.868c-0.961-2.917-2.151-7.492-3.036-10.238
	c-1.979-6.656-4.064-13.7-6.233-21.053c-3.01-10.202-6.186-21.007-9.478-32.233c-8.717-29.73-18.247-62.401-27.669-94.605
	c-3.296-11.266-6.578-22.471-9.808-33.475c-4.249-14.475-8.406-28.595-12.382-42.031c-4.685-15.832-9.118-30.707-13.154-44.09
	C405.328,881.782,547.973,950.247,684.673,1015.659z"/>
<path style="fill:#A0A0A3;" d="M1433.759,1251.344c5.744,3.21,11.424,6.53,16.948,10.062c6.781,4.467,13.637,8.926,18.932,14.99
	c1.509,2.044,3.585,4.423,2.117,6.889c-2.588,3.713-6.894,6.118-10.873,8.477c-14.354,7.912-29.766,13.683-45.156,19.42
	c-20.795,7.494-41.775,14.449-62.875,21.032c-41.863,13.061-84.208,24.632-126.581,35.866
	c-44.669,11.284-89.389,23.241-134.912,30.436c-3.1,0.395-6.185,0.802-9.308,0.595c-3.096-0.396-6.279-1.094-9.293-1.94
	c-12.566-3.508-24.903-8.31-37.083-13.087c-33.829-14.039-67.385-28.709-100.75-43.814
	c-98.906-44.777-196.133-93.382-293.793-140.745c0,0-71.064-35.061-71.064-35.061c45.694,23.701,95.287,49.009,141.168,72.052
	c75.582,37.614,151.579,75.411,228.437,110.77c19.149,8.81,38.349,17.475,57.613,25.94c24.392,10.394,48.685,21.169,74.194,28.661
	c3.206,0.919,6.756,1.654,10.081,2.101c3.481,0.288,6.995-0.17,10.428-0.596c6.643-0.872,13.169-2.044,19.686-3.276
	c64.843-12.997,128.722-30.245,192.27-48.424c19.197-5.793,38.475-11.474,57.638-17.505c31.365-9.871,62.419-20.682,92.295-34.486
	c6.045-3.041,12.03-6.064,17.32-10.458c3.094-2.522,5.883-6.199,4.084-10.437c-4.927-11.23-28.872-23.856-40.002-30.215
	c-70.139-37.013-144.32-65.683-218.269-94.035c-0.022-0.008-0.043-0.017-0.065-0.025c0.03,0.012,0.06,0.024,0.089,0.036
	C1290.328,1184.294,1364.055,1213.866,1433.759,1251.344z"/>
<path style="fill:#A0A0A3;" d="M599.233,1072.643c-15.498,4.311-59.182,15.211-64.353,31.179c-0.704,2.35-0.484,5.092,0.831,7.218
	c1.158,1.531,2.731,2.699,4.181,3.824c10.313,7.439,21.448,13.587,32.407,19.908c9.156,5.168,18.361,10.247,27.599,15.264
	c17.388,9.444,34.899,18.66,52.463,27.762c59.341,30.405,118.902,60.434,178.865,89.628c67.123,32.68,134.75,64.311,203.162,94.198
	c6.688,2.808,13.376,5.602,20.167,8.214c2.676,1.029,5.365,2.036,8.082,2.995c3.011,0.993,6.184,2.198,9.519,2.425
	c5.728,0.528,11.621-0.033,17.341-0.604c7.085-0.843,14.128-1.924,21.146-3.145c14.163-2.463,28.214-5.54,42.231-8.704
	c13.512-3.156,26.986-6.463,40.429-9.888c19.949-5.083,39.825-10.444,59.636-16.045c5.699-1.611,11.394-3.236,17.083-4.885
	c-6.13,1.593-12.261,3.18-18.396,4.756c-21.293,5.471-42.62,10.81-64.021,15.811c-21.543,5.033-43.161,9.723-64.898,13.856
	c-12.346,2.265-24.789,4.371-37.276,5.385c-4.839,0.364-9.861,0.608-14.656-0.109c-2.243-0.479-4.65-1.314-6.982-2.141
	c-46.847-18.448-92.141-40.851-137.783-62.159c-72.892-34.657-145.436-70.075-217.614-106.197
	c-14.452-7.365-28.961-14.644-43.46-21.949c-23.885-12.033-47.738-24.146-71.265-36.834c-15.422-8.318-30.707-16.878-45.759-25.841
	c-3.287-2.171-6.774-4.214-9.519-6.995l-0.222-0.264c-0.029-0.062-0.065-0.118-0.109-0.172c0,0-0.286-0.714-0.286-0.714
	c-3.593-13.666,35.519-27.064,70.669-36.341c9.603-2.534,18.91-4.762,26.969-6.602c10.586-2.417,19.023-4.168,23.147-5.073
	c9.871-2.091,19.769-4.064,29.68-5.966c-29.387,4.88-58.686,10.435-87.557,17.84
	C600.205,1072.403,599.718,1072.518,599.233,1072.643z"/>
<path style="fill:#A0A0A3;" d="M1331.125,947.718c24.709-5.606,49.394-11.455,73.723-18.622
	c7.272-2.469,40.333-11.113,39.598-19.799c-0.099-2.743-2.365-3.957-4.324-5.158c-1.046-0.609-2.104-1.194-3.165-1.77
	c-3.64-1.975-7.355-3.787-11.044-5.596c-11.798-5.436-23.635-10.838-35.495-16.22c-27.478-12.47-55.115-24.795-82.857-37.01
	c-133.478-58.777-269.478-114.907-403.097-171.083c-0.49-0.206-0.982-0.412-1.472-0.618c0.471,0.206,0.949,0.414,1.421,0.62
	c127.247,55.595,268.891,115.725,401.075,174.557c16.847,7.498,33.532,14.974,50.023,22.418
	c19.307,8.715,38.347,17.387,57.017,25.992c7.559,3.598,15.195,7.213,22.537,11.177c1.557,0.831,3.011,1.69,4.45,2.664
	c0.057,0.069,0.18,0.144,0.226,0.196c-0.018,0.035-0.039,0.075-0.065,0.12c-0.282,0.432-0.942,1.046-1.663,1.575
	c-3.205,2.227-7.045,3.89-10.762,5.376c-7.707,3.059-15.731,5.563-23.766,7.963c-24.215,7.102-48.801,12.898-73.429,18.456
	c-54.929,11.907-110.131,23.17-165.655,32.157c-19.295,3.123-38.628,5.975-58.003,8.478c-4.136,0.448-8.292,0.864-12.365,1.044
	c-0.022,0.001-0.045,0.003-0.067,0.004c-1.909,0.096-3.838,0.103-5.671-0.283c-9.997-2.666-19.718-6.679-29.474-10.354
	c-24.984-10.058-49.91-20.273-74.789-30.607c-115.232-47.865-229.422-98.432-343.328-149.307
	c-15.282-7.018-30.698-13.97-45.196-22.453c-8.803-5.41-20.414-13.408-7.893-22.054c5.141-3.599,11.023-5.957,16.889-8.171
	c23.831-8.442,48.683-13.634,73.38-18.907c-24.799,4.918-49.764,9.696-73.735,17.926c-6.563,2.575-22.608,7.849-23.405,16.527
	c-0.079,0.862-0.013,1.756,0.233,2.686c1.167,3.795,5.055,7.524,10.005,11c5.546,3.894,12.422,7.469,18.305,10.467
	c1.659,0.846,3.238,1.645,4.686,2.393c1.078,0.556,2.087,1.086,2.998,1.582c21.313,10.124,42.701,20.097,64.143,29.959
	c4.025,1.851,8.051,3.698,12.08,5.542c28.696,13.129,57.485,26.065,86.333,38.869c53.467,23.731,107.128,47.028,160.741,70.337
	c38.779,16.576,77.553,33.227,116.816,48.68c6.506,2.516,13.006,5.013,19.635,7.321c1.408,0.49,2.813,0.983,4.235,1.453
	c3.106,0.975,6.523,2.2,9.882,2.268c0.793,0.009,1.584,0,2.374-0.017c4.615-0.103,9.19-0.618,13.72-1.078
	c13.107-1.671,26.187-3.51,39.247-5.478c14.574-2.196,29.12-4.559,43.642-7.07C1237.142,967.687,1284.208,957.981,1331.125,947.718z
	 M1439.821,909.559C1439.832,909.572,1439.83,909.572,1439.821,909.559L1439.821,909.559z"/>
</svg>
