<svg id="Layer_1" enable-background="new 0 0 512 512" viewBox="0 0 512 512" xmlns="http://www.w3.org/2000/svg" width="300" height="300" version="1.1" xmlns:xlink="http://www.w3.org/1999/xlink" xmlns:svgjs="http://svgjs.dev/svgjs"><g width="100%" height="100%" transform="matrix(0.9,0,0,0.9,25.72267265319823,26.738814926147455)"><g><path d="m124.84 202.95c-3.43-2.78-3.97-7.79-1.22-11.23 2.78-3.43 7.8-3.97 11.23-1.22l12.76 10.23 27.5-31.24c2.89-3.32 7.97-3.63 11.28-.71 3.29 2.92 3.63 7.97.71 11.28l-32.54 36.96v-.03c-2.81 3.2-7.65 3.66-11 .96zm30.61-87.56c43.03 0 77.87 34.87 77.87 77.87 0 43.03-34.84 77.87-77.87 77.87-43 0-77.87-34.84-77.87-77.87 0-43 34.87-77.87 77.87-77.87zm43.77 34.13c-24.18-24.15-63.35-24.15-87.51 0-24.15 24.15-24.15 63.33 0 87.51 24.15 24.15 63.33 24.15 87.51 0 24.15-24.18 24.15-63.36 0-87.51zm-23.64-84.78 12.02 11.11c3.06 2.83 6.69 4.03 10.89 3.52l16.27-1.93c15.39-1.84 29.54 8.48 32.57 23.67l3.17 16.07c.82 4.11 3.06 7.2 6.69 9.24l14.29 7.99c13.58 7.6 18.96 24.18 12.47 38.27l-6.86 14.85c-1.76 3.8-1.76 7.68 0 11.45l6.86 14.88c6.49 14.06 1.11 30.67-12.47 38.27l-14.29 7.99c-3.63 2.04-5.87 5.13-6.69 9.24l-3.17 16.04c-3.03 15.22-17.18 25.51-32.57 23.7l-4.37-.54v8.39h88.89c-.03-.51-.06-1.02-.06-1.53v-125.93c0-9.67 7.88-17.52 17.52-17.52h134.56c9.67 0 17.55 7.85 17.55 17.52v125.94c0 .51-.03 1.02-.09 1.53h3.94c9.64 0 17.52 7.88 17.52 17.52v125.94c0 9.67-7.88 17.55-17.52 17.55h-134.56c-3.51 0-6.77-1.05-9.52-2.83-2.75 1.79-6.04 2.83-9.52 2.83h-134.57c-9.67 0-17.55-7.88-17.55-17.55v-75.23l-11.54-9.44-41.84 34.27c-5.27 4.34-13.07.37-13.07-6.18v-95.27l-4.37.54c-15.42 1.81-29.54-8.48-32.57-23.7l-3.17-16.04c-.82-4.11-3.06-7.2-6.69-9.24l-14.31-7.99c-13.55-7.6-18.94-24.21-12.44-38.27l6.86-14.88c1.76-3.77 1.76-7.65 0-11.45l-6.86-14.85c-6.49-14.09-1.11-30.67 12.44-38.27l14.31-7.99c3.63-2.04 5.87-5.13 6.69-9.24l3.17-16.07c3.03-15.19 17.15-25.51 32.57-23.67l16.24 1.93c4.2.51 7.85-.68 10.91-3.52l12.02-11.11c11.45-10.59 28.82-10.59 40.25-.01zm18.79 242.5c-2.52.42-4.85 1.64-6.77 3.46l-12.02 11.11c-11.42 10.57-28.8 10.57-40.22 0l-12.02-11.11c-1.96-1.81-4.25-3.03-6.77-3.46v79.71l33.73-27.64c2.89-2.44 7.2-2.55 10.23-.08l33.85 27.72v-79.71zm-17.6-219.71-12.02-11.11c-5.22-4.82-13.38-4.82-18.57 0l-12.02 11.11c-6.58 6.09-14.77 8.76-23.61 7.71l-16.24-1.93c-7.11-.85-13.61 3.85-15.02 10.88l-3.17 16.04c-1.73 8.79-6.8 15.73-14.63 20.13l-14.29 7.99c-6.24 3.46-8.7 11.14-5.73 17.63l6.89 14.85c3.74 8.14 3.74 16.72 0 24.83l-6.89 14.88c-2.98 6.49-.51 14.14 5.73 17.63l14.29 7.99c7.82 4.37 12.9 11.34 14.63 20.13l3.17 16.04c1.42 7.03 7.91 11.74 15.02 10.89l16.24-1.93c8.84-1.05 17.04 1.62 23.61 7.68l12.02 11.14c5.19 4.82 13.35 4.82 18.57 0l12.02-11.14c6.55-6.07 14.77-8.73 23.61-7.68l16.24 1.93c7.11.85 13.61-3.85 15-10.89l3.2-16.04c1.73-8.79 6.8-15.76 14.63-20.13l14.29-7.99c6.24-3.49 8.7-11.14 5.7-17.63l-6.86-14.88c-3.74-8.11-3.74-16.7 0-24.83l6.86-14.85c3-6.49.54-14.17-5.7-17.63l-14.29-7.99c-7.82-4.39-12.9-11.34-14.63-20.13l-3.2-16.04c-1.39-7.03-7.88-11.74-15-10.88l-16.24 1.93c-8.84 1.04-17.06-1.62-23.61-7.71zm33.62 245.42v70.89c0 6.66-7.85 10.63-13.29 6.01l-14.1-11.53v62.11c0 .82.71 1.53 1.53 1.53h134.57c.82 0 1.5-.68 1.5-1.56v-125.89c0-.85-.68-1.56-1.5-1.56h-39.46v55.13c0 4.42-3.6 7.99-8.02 7.99h-39.63c-4.42 0-7.99-3.57-7.99-7.99v-55.13zm201.45-144.99v55.13c0 4.42-3.57 7.99-7.99 7.99h-39.63c-4.42 0-8.02-3.57-8.02-7.99v-55.13h-39.46c-.82 0-1.53.71-1.53 1.53v125.94c0 .82.71 1.53 1.53 1.53h134.56c.82 0 1.53-.71 1.53-1.53v-125.94c0-.82-.71-1.53-1.53-1.53zm-39.62 0v47.14h23.64v-47.14zm61.03 144.99v55.13c0 4.42-3.6 7.99-7.99 7.99h-39.66c-4.42 0-7.99-3.57-7.99-7.99v-55.13h-39.46c-.82 0-1.53.71-1.53 1.53v125.94c0 .82.71 1.53 1.53 1.53h134.55c.82 0 1.53-.71 1.53-1.53v-125.94c0-.82-.71-1.53-1.53-1.53zm-39.66 0v47.14h23.64v-47.14zm-153.61 0v47.14h23.64v-47.14z" fill="#ec2029" fill-opacity="1" data-original-color="#000000ff" stroke="none" stroke-opacity="1"/></g></g></svg>