<svg id="Layer_1" viewBox="0 0 512 512" xmlns="http://www.w3.org/2000/svg" data-name="Layer 1" width="300" height="300" version="1.1" xmlns:xlink="http://www.w3.org/1999/xlink" xmlns:svgjs="http://svgjs.dev/svgjs"><g width="100%" height="100%" transform="matrix(0.9,0,0,0.9,25.600702381134028,25.60086994171141)"><path d="m315.653 458.833h-22.26a21.18 21.18 0 0 1 -20.387 15.618h-68.391a21.181 21.181 0 0 1 -20.387-15.618h-23.071a43.233 43.233 0 0 1 -84.826 0h-20.708a6.006 6.006 0 0 1 -3.909-1.553l-37.306-28.022a6.067 6.067 0 0 1 -3.4-5.452v-189.377a6.067 6.067 0 0 1 6.067-6.067h42.152c-9.929-19.922-17.851-39.64-17.851-51.851a61.987 61.987 0 0 1 75.778-60.391 199.058 199.058 0 0 1 196.231-96.23q.279.023.555.072a199.1 199.1 0 0 1 146.187 298.481 235.121 235.121 0 0 1 8.947 25.491l5.052 17.348a6.087 6.087 0 0 1 .3 1.016l17.269 59.309c.627 1.849.411 3.839.411 6.019 5.521 0 8.9 4.9 8.9 10.007v10.753c0 5.1-3.374 10.008-8.9 10.008v3.82a6.066 6.066 0 0 1 -6.067 6.066h-18.795c-12.406 27.378-48.523 34.174-69.954 12.744a43.3 43.3 0 0 1 -8.827-12.744h-66.744a6.066 6.066 0 0 1 -6.066-6.066zm73.965-197.473c-3.832-15.3-.8-26.093 4.026-40.08 6.5-18.844 6-21.251-7.554-36.652-5.277-6-10.268-11.669-11.759-18.145-3.282-14.254 11.04-24.735 18.593-35.722 6.931-10.081 8.366-22.429 19.519-26.756 6.618-2.568 15.718-1.347 25.678 1.186a186.342 186.342 0 0 0 -123.521-72.947c-4.947 3.826-11.9 8.965-16.409 13.656-2.493 2.595-4.42 4.869-4.195 5.523.806 2.348 19.866 8.562 30.918 25.743 12.087 18.789 18.117 55.8-5.234 66.713-20.131 9.408-61.557-4.951-73.4 1.984-4.087 2.394-4.972 9.858-5.935 17.983-1.5 12.663-3.145 26.532-16.342 34.89-15.536 9.84-45.753 8.621-66.353 7.107-2.891 7.2-6.419 14.843-10.244 22.519h120.713c.632-.254 15.5-17.95 54.161-20.282 18.133-1.093 38.058 1.739 47.809 15 8.443 11.487 7.022 27.233-1.54 38.275zm59.057-140.526c-13.18-4.073-26-7.828-31.872-5.549-2.912 1.13-4.9 5.3-7.274 10.287-4.691 9.849-6.68 12.721-13.953 21.227-5.294 6.192-10.521 12.305-9.444 16.982 1.895 8.228 19.909 20.214 23.134 35.465 3.32 15.7-9.223 31.436-9.288 48.5a45.511 45.511 0 0 0 2.373 14.131c24.087 3.35 40.465 22.388 51.433 43.121a187.08 187.08 0 0 0 -5.109-184.168zm-99.354 140.526a24.156 24.156 0 0 0 11.391-10.026c5.323-9.278 3.588-20.569-6.243-26.21-7.35-4.216-19.11-5.7-31.478-4.958-12.1.73-24.544 3.613-33.944 8.2h32.672a6.067 6.067 0 0 1 6.067 6.067v26.927zm-201.56-62.847a6.037 6.037 0 0 1 .835-2.249c2.819-7.777 4.532-14.616 4.532-19.753a49.81 49.81 0 0 0 -99.619 0c0 12.009 9.354 33.312 20.338 54.189a6.059 6.059 0 0 1 .993 1.879c10.386 19.548 22 38.464 28.478 48.73 12.468-19.762 34.685-57.143 44.443-82.8zm14.174-4.524c16.435 1.086 43.7 2.062 55.628-5.491 16.87-10.685 4.311-42.344 22.608-53.062 17.587-10.3 61.09 6.181 75.948-3.376 4.991-3.211 7.167-9.7 7.378-17.132a58.6 58.6 0 0 0 -8.773-31.222c-10.877-16.906-28.624-17.944-32.197-28.349-3.191-9.288 7.413-18.9 14.533-24.748a187.074 187.074 0 0 0 -168.178 89.465 61.955 61.955 0 0 1 36.379 56.437c0 4.81-1.23 10.785-3.326 17.478zm286.014 126.728a6.2 6.2 0 0 1 -.26-.591c-1.918-4.322-4.007-8.541-6.281-12.568h-55.629v49.858h74.629c-3.8-13.052-6.744-23.689-12.459-36.7zm-345.73-122.117a17.932 17.932 0 0 1 -12.009-5.631c-10.73-11.4-2.655-30.316 13.109-30.316a18.027 18.027 0 0 1 17.607 21.729 17.865 17.865 0 0 1 -1.144 3.563 6.047 6.047 0 1 0 11.043 4.929 30.038 30.038 0 0 0 1.95-5.98h-.006a30.107 30.107 0 0 0 -50.742-27.551c-18.381 18.381-6.248 49.82 19.485 51.345a6.053 6.053 0 0 0 .711-12.086zm-36.728 41.9h-42.354v177.239h67.363a43.223 43.223 0 0 1 56.485 0h168.668v-177.239h-174.508c-15.461 29-32.666 55.231-32.756 55.368a6.062 6.062 0 0 1 -10.2-.1c-1.114-1.7-17.721-27.184-32.693-55.272zm195.583 108.27h-39.726a6.067 6.067 0 0 0 0 12.134h39.726a6.067 6.067 0 0 0 0-12.134zm0-34.066h-79.451a6.067 6.067 0 1 0 0 12.134h79.451a6.067 6.067 0 0 0 0-12.134zm0-34.066h-125.7a6.067 6.067 0 0 0 0 12.134h125.7a6.067 6.067 0 0 0 0-12.134zm-211.374 160.014v-10.78h-14.35zm12.133-10.78v16.828h13.849a42.933 42.933 0 0 1 5.047-16.828zm151.581 32.445v-17.964h-8.8a8.982 8.982 0 0 0 0 17.964zm12.134-17.964v17.964h26.521v-17.964zm38.655 0v17.964h8.8a8.982 8.982 0 0 0 0-17.964zm81.941-60.781h4.84a6.067 6.067 0 0 0 0-12.133h-4.84a6.067 6.067 0 1 0 0 12.133zm117.795-14.023h-84.227a6.067 6.067 0 0 1 -6.067-6.067v-61.99a6.067 6.067 0 0 1 6.067-6.067h53.763c-9.914-12.968-22.605-21.932-38.757-21.932h-66.932v144.246h71.825a43.223 43.223 0 0 1 56.485 0h21.877l-14.032-48.19zm-36.088 69.2a11.711 11.711 0 1 0 8.281 19.992 11.713 11.713 0 0 0 -8.281-19.992zm-309.109 0c-10.305 0-15.695 12.577-8.28 19.992l.011-.012a11.706 11.706 0 1 0 8.269-19.98zm271.1-8.877h-62.056v26.275h57.214a43.217 43.217 0 0 1 4.838-26.275zm76.029 0a43.217 43.217 0 0 1 4.838 26.275h9.263v-26.275zm-16.029-1.4a31.091 31.091 0 1 0 0 43.97 31.1 31.1 0 0 0 0-43.97zm-300.07 23.985.063-2a31.072 31.072 0 1 0 -.063 2zm12.034-5.757h22.765a21.178 21.178 0 0 1 20.044-14.481h68.391a21.178 21.178 0 0 1 20.044 14.481h22.6v-16.828h-158.891a42.95 42.95 0 0 1 5.047 16.828z" fill-rule="evenodd" fill="#ec2029" fill-opacity="1" data-original-color="#000000ff" stroke="none" stroke-opacity="1"/></g></svg>